<?xml version="1.0" encoding="utf-8" standalone="no"?>
<!DOCTYPE svg PUBLIC "-//W3C//DTD SVG 1.1//EN"
  "http://www.w3.org/Graphics/SVG/1.1/DTD/svg11.dtd">
<!-- Created with matplotlib (http://matplotlib.org/) -->
<svg height="360pt" version="1.1" viewBox="0 0 1080 360" width="1080pt" xmlns="http://www.w3.org/2000/svg" xmlns:xlink="http://www.w3.org/1999/xlink">
 <defs>
  <style type="text/css">
*{stroke-linecap:butt;stroke-linejoin:round;stroke-miterlimit:100000;}
  </style>
 </defs>
 <g id="figure_1">
  <g id="patch_1">
   <path d="M 0 360 
L 1080 360 
L 1080 0 
L 0 0 
z
" style="fill:#ffffff;"/>
  </g>
  <g id="axes_1">
   <g id="patch_2">
    <path d="M 135 270.978261 
L 316.956522 270.978261 
L 316.956522 89.021739 
L 135 89.021739 
z
" style="fill:#ffffff;"/>
   </g>
   <g id="Quiver_1">
    <path clip-path="url(#p35ada96447)" d="M 243.870091 206.827151 
L 243.870091 206.827151 
L 243.85622 202.278259 
L 253.980281 207.301758 
L 243.887045 212.386908 
L 243.873174 207.838016 
L 243.873174 207.838016 
L 243.870091 206.827151 
" style="fill:#ff0000;"/>
    <path clip-path="url(#p35ada96447)" d="M 144.032454 176.033854 
L 144.032454 176.033854 
L 147.514717 173.107004 
L 150.149648 184.097422 
L 139.776355 179.611116 
L 143.258618 176.684266 
L 143.258618 176.684266 
L 144.032454 176.033854 
" style="fill:#ff0000;"/>
    <path clip-path="url(#p35ada96447)" d="M 258.772776 159.27884 
L 258.772776 159.27884 
L 257.85978 163.735189 
L 248.971222 156.75481 
L 259.888661 153.832191 
L 258.975664 158.28854 
L 258.975664 158.28854 
L 258.772776 159.27884 
" style="fill:#ff0000;"/>
   </g>
   <g id="Quiver_2">
    <path clip-path="url(#p35ada96447)" d="M 246.451748 193.27325 
L 246.451748 193.27325 
L 246.198389 188.731398 
L 256.572903 193.21488 
L 246.761409 198.824402 
L 246.50805 194.28255 
L 246.50805 194.28255 
L 246.451748 193.27325 
" style="fill:#0000ff;"/>
    <path clip-path="url(#p35ada96447)" d="M 143.077916 181.574384 
L 143.077916 181.574384 
L 145.201829 177.551748 
L 151.781116 186.741152 
L 140.482021 186.490939 
L 142.605935 182.468303 
L 142.605935 182.468303 
L 143.077916 181.574384 
" style="fill:#0000ff;"/>
    <path clip-path="url(#p35ada96447)" d="M 256.594177 167.292527 
L 256.594177 167.292527 
L 256.340819 171.834379 
L 246.529324 166.224857 
L 256.903838 161.741374 
L 256.650479 166.283226 
L 256.650479 166.283226 
L 256.594177 167.292527 
" style="fill:#0000ff;"/>
   </g>
   <g id="line2d_1">
    <path clip-path="url(#p35ada96447)" d="M 308.276574 188.217044 
L 308.029056 189.564069 
L 307.558393 190.885084 
L 306.856176 192.19186 
L 305.891412 193.50946 
L 304.64215 194.82997 
L 303.087053 196.144633 
L 301.184668 197.457045 
L 298.907109 198.754606 
L 296.201153 200.035096 
L 293.063967 201.269885 
L 289.44187 202.452096 
L 285.345283 203.551977 
L 280.723923 204.557943 
L 275.605357 205.439983 
L 270.03485 206.172335 
L 263.982495 206.741554 
L 257.51348 207.124614 
L 250.659436 207.30545 
L 243.510671 207.270056 
L 236.117749 207.009492 
L 228.588993 206.520737 
L 220.986632 205.803285 
L 213.426832 204.865821 
L 206.024246 203.724851 
L 198.838338 202.394168 
L 191.924691 200.888765 
L 185.379676 199.236835 
L 179.285461 197.471463 
L 173.667024 195.615167 
L 168.578606 193.70434 
L 163.986928 191.745796 
L 159.956632 189.790291 
L 156.437578 187.841176 
L 153.435776 185.93131 
L 150.897359 184.058399 
L 148.813958 182.251302 
L 147.147105 180.520038 
L 145.845012 178.855281 
L 144.876029 177.263087 
L 144.207979 175.748051 
L 143.805335 174.296664 
L 143.643666 172.895075 
L 143.709187 171.529595 
L 143.998446 170.187151 
L 144.510657 168.871394 
L 145.264826 167.55533 
L 146.275119 166.245086 
L 147.570818 164.932958 
L 149.191701 163.614014 
L 151.16663 162.299866 
L 153.523265 161.003415 
L 156.315027 159.727347 
L 159.543659 158.500462 
L 163.262693 157.330127 
L 167.460218 156.246202 
L 172.146756 155.268037 
L 177.326779 154.4158 
L 182.997773 153.710244 
L 189.149296 153.17242 
L 195.713935 152.825094 
L 202.608525 152.684461 
L 209.787902 152.760707 
L 217.200805 153.06244 
L 224.738263 153.592044 
L 232.337738 154.349665 
L 239.882988 155.325995 
L 247.259701 156.503947 
L 254.408863 157.869456 
L 261.228667 159.396005 
L 267.674832 161.06405 
L 273.66743 162.840548 
L 279.18327 164.703305 
L 284.206813 166.631142 
L 288.696069 168.588483 
L 292.658585 170.55515 
L 296.08111 172.496565 
L 299.016503 174.412685 
L 301.467718 176.272924 
L 303.471338 178.065338 
L 305.080513 179.797507 
L 306.314855 181.444789 
L 307.223567 183.018579 
L 307.844349 184.531506 
L 308.201031 185.980025 
L 308.317665 187.378034 
L 308.276574 188.217044 
L 308.276574 188.217044 
" style="fill:none;stroke:#ff0000;stroke-linecap:square;stroke-width:1.5;"/>
   </g>
   <g id="line2d_2">
    <path clip-path="url(#p35ada96447)" d="M 308.685771 180 
L 308.573305 180.739772 
L 308.230787 181.486401 
L 307.617934 182.272909 
L 306.670769 183.113239 
L 305.298832 184.019272 
L 303.418696 184.983036 
L 300.922988 186.002158 
L 297.71525 187.062338 
L 293.702193 188.145649 
L 288.831979 189.223446 
L 283.043573 190.271589 
L 276.293895 191.262383 
L 268.652599 192.155588 
L 260.146993 192.922786 
L 250.932518 193.529059 
L 241.107354 193.950935 
L 230.899686 194.165221 
L 220.564069 194.159928 
L 210.313004 193.933505 
L 200.355987 193.492253 
L 190.983347 192.857539 
L 182.306532 192.050857 
L 174.495184 191.105981 
L 167.628589 190.056934 
L 161.744176 188.939119 
L 156.83909 187.787797 
L 152.873934 186.636765 
L 149.75805 185.509097 
L 147.408357 184.432104 
L 145.710573 183.421279 
L 144.543107 182.479497 
L 143.808085 181.614922 
L 143.407424 180.815452 
L 143.271441 180.05796 
L 143.366294 179.318115 
L 143.691036 178.571253 
L 144.285159 177.784321 
L 145.212312 176.943335 
L 146.548167 176.044911 
L 148.383804 175.088002 
L 150.826035 174.074709 
L 153.971246 173.019025 
L 157.913018 171.93853 
L 162.704228 170.861543 
L 168.444471 169.805632 
L 175.107593 168.811255 
L 182.704452 167.90696 
L 191.124681 167.131165 
L 200.306577 166.510512 
L 210.057926 166.075009 
L 220.2011 165.844295 
L 230.536481 165.831202 
L 240.800678 166.039377 
L 250.783824 166.462893 
L 260.241625 167.084591 
L 268.963822 167.876736 
L 276.869415 168.813998 
L 283.82859 169.858502 
L 289.801128 170.974592 
L 294.787619 172.126685 
L 298.825775 173.280623 
L 301.984956 174.404739 
L 304.392557 175.487502 
L 306.138297 176.505212 
L 307.344403 177.454682 
L 308.109307 178.327508 
L 308.532178 179.13559 
L 308.683419 179.892997 
L 308.685771 180 
L 308.685771 180 
" style="fill:none;stroke:#0000ff;stroke-dasharray:6.000000,6.000000;stroke-dashoffset:0.0;stroke-width:1.5;"/>
   </g>
   <g id="patch_3">
    <path d="M 316.956522 270.978261 
L 316.956522 89.021739 
" style="fill:none;stroke:#000000;stroke-linecap:square;stroke-linejoin:miter;"/>
   </g>
   <g id="patch_4">
    <path d="M 135 270.978261 
L 316.956522 270.978261 
" style="fill:none;stroke:#000000;stroke-linecap:square;stroke-linejoin:miter;"/>
   </g>
   <g id="patch_5">
    <path d="M 135 270.978261 
L 135 89.021739 
" style="fill:none;stroke:#000000;stroke-linecap:square;stroke-linejoin:miter;"/>
   </g>
   <g id="patch_6">
    <path d="M 135 89.021739 
L 316.956522 89.021739 
" style="fill:none;stroke:#000000;stroke-linecap:square;stroke-linejoin:miter;"/>
   </g>
   <g id="text_1">
    <!-- $m = -2$ -->
    <g transform="translate(199.77026087 84.0217391304)">
     <text>
      <tspan style="font-family:cmr10;font-size:14.399999999999999px;font-style:regular;font-weight:regular;" x="15.160748291015626 45.099978637695315" y="-0.421875">=2</tspan>
      <tspan style="font-family:cmsy10;font-size:14.399999999999999px;font-style:regular;font-weight:regular;" x="31.39375915527344" y="-0.421875">ยก</tspan>
      <tspan style="font-family:cmmi10;font-size:14.399999999999999px;font-style:regular;font-weight:regular;" x="0.0" y="-0.421875">m</tspan>
     </text>
    </g>
   </g>
  </g>
  <g id="axes_2">
   <g id="patch_7">
    <path d="M 353.347826 270.978261 
L 535.304348 270.978261 
L 535.304348 89.021739 
L 353.347826 89.021739 
z
" style="fill:#ffffff;"/>
   </g>
   <g id="Quiver_3">
    <path clip-path="url(#p4d5035177b)" d="M 477.427642 180.843588 
L 477.427642 180.843588 
L 473.634821 178.33219 
L 483.42995 172.694141 
L 482.063312 183.913074 
L 478.270491 181.401676 
L 478.270491 181.401676 
L 477.427642 180.843588 
" style="fill:#ff0000;"/>
    <path clip-path="url(#p4d5035177b)" d="M 395.555834 245.886484 
L 395.555834 245.886484 
L 395.168739 241.354071 
L 405.670874 245.529872 
L 396.028952 251.4261 
L 395.641856 246.893687 
L 395.641856 246.893687 
L 395.555834 245.886484 
" style="fill:#ff0000;"/>
    <path clip-path="url(#p4d5035177b)" d="M 444.621402 140.547129 
L 444.621402 140.547129 
L 447.794267 143.806812 
L 437.025121 147.235755 
L 440.743454 136.563072 
L 443.91632 139.822755 
L 443.91632 139.822755 
L 444.621402 140.547129 
" style="fill:#ff0000;"/>
   </g>
   <g id="Quiver_4">
    <path clip-path="url(#p4d5035177b)" d="M 466.057802 168.906065 
L 466.057802 168.906065 
L 461.997764 166.854554 
L 471.06783 160.111703 
L 471.020072 171.413467 
L 466.960033 169.361956 
L 466.960033 169.361956 
L 466.057802 168.906065 
" style="fill:#0000ff;"/>
    <path clip-path="url(#p4d5035177b)" d="M 404.239371 252.580997 
L 404.239371 252.580997 
L 401.817623 248.730316 
L 413.065523 247.627188 
L 407.199285 257.287385 
L 404.777537 253.436704 
L 404.777537 253.436704 
L 404.239371 252.580997 
" style="fill:#0000ff;"/>
    <path clip-path="url(#p4d5035177b)" d="M 448.629051 147.132102 
L 448.629051 147.132102 
L 452.43573 149.622443 
L 442.671995 155.314686 
L 443.976442 144.088352 
L 447.783122 146.578693 
L 447.783122 146.578693 
L 448.629051 147.132102 
" style="fill:#0000ff;"/>
   </g>
   <g id="line2d_3">
    <path clip-path="url(#p4d5035177b)" d="M 497.092309 116.311241 
L 498.117581 117.30673 
L 498.996561 118.472719 
L 499.734744 119.823108 
L 500.330592 121.379272 
L 500.775036 123.169875 
L 501.048914 125.207553 
L 501.132633 127.528897 
L 501.000089 130.149814 
L 500.624947 133.084153 
L 499.981007 136.343175 
L 499.03302 139.967984 
L 497.761018 143.933463 
L 496.141951 148.239216 
L 494.155061 152.879739 
L 491.802176 157.804698 
L 489.054428 163.033517 
L 485.926268 168.501558 
L 482.446015 174.13495 
L 478.598077 179.936261 
L 474.454811 185.779401 
L 470.011523 191.658892 
L 465.360976 197.444307 
L 460.506481 203.12783 
L 455.554587 208.584716 
L 450.51209 213.810949 
L 445.491056 218.697145 
L 440.532114 223.217047 
L 435.672652 227.349645 
L 430.981353 231.052685 
L 426.486254 234.323298 
L 422.210577 237.163802 
L 418.204611 239.563232 
L 414.478555 241.541245 
L 411.037731 243.120961 
L 407.883116 244.328191 
L 405.037655 245.184108 
L 402.466138 245.729802 
L 400.182035 245.993493 
L 398.148302 246.011348 
L 396.332847 245.809285 
L 394.726399 245.409265 
L 393.318631 244.833013 
L 392.084347 244.091863 
L 390.99214 243.176409 
L 390.04498 242.089141 
L 389.236719 240.816866 
L 388.575046 239.357017 
L 388.057571 237.667333 
L 387.703379 235.734704 
L 387.531871 233.547137 
L 387.563988 231.067742 
L 387.825947 228.281675 
L 388.344015 225.17642 
L 389.152592 221.710177 
L 390.273239 217.905309 
L 391.729816 213.760049 
L 393.544194 209.277428 
L 395.735603 204.465912 
L 398.298993 199.379698 
L 401.239074 194.042624 
L 404.55633 188.484091 
L 408.246517 182.739265 
L 412.270702 176.890658 
L 416.577508 171.025333 
L 421.137686 165.190979 
L 425.918741 159.436686 
L 430.815735 153.888755 
L 435.821745 148.551518 
L 440.860748 143.502615 
L 445.855956 138.808941 
L 450.768405 134.493948 
L 455.562465 130.57593 
L 460.171699 127.093044 
L 464.570297 124.045481 
L 468.704984 121.447647 
L 472.563114 119.281717 
L 476.137174 117.52601 
L 479.396175 116.166404 
L 482.372515 115.159696 
L 485.071067 114.477426 
L 487.476433 114.092712 
L 489.625451 113.968133 
L 491.530383 114.074164 
L 493.223171 114.38636 
L 494.7137 114.882958 
L 496.027571 115.551562 
L 497.092309 116.311241 
L 497.092309 116.311241 
" style="fill:none;stroke:#ff0000;stroke-linecap:square;stroke-width:1.5;"/>
   </g>
   <g id="line2d_4">
    <path clip-path="url(#p4d5035177b)" d="M 485.679842 108.373195 
L 486.264271 108.840479 
L 486.739611 109.510423 
L 487.114321 110.434424 
L 487.368485 111.674858 
L 487.467165 113.316006 
L 487.361741 115.426134 
L 486.996472 118.097042 
L 486.310745 121.405114 
L 485.242392 125.422179 
L 483.740685 130.178806 
L 481.7542 135.715784 
L 479.237414 142.056574 
L 476.190304 149.120733 
L 472.601914 156.870403 
L 468.519725 165.153509 
L 463.972498 173.873288 
L 459.05424 182.820532 
L 453.881848 191.768792 
L 448.560228 200.533263 
L 443.199583 208.935667 
L 437.963586 216.735254 
L 432.926571 223.846255 
L 428.202611 230.138643 
L 423.860811 235.560765 
L 419.950548 240.097909 
L 416.500932 243.770177 
L 413.521531 246.628587 
L 410.986999 248.763187 
L 408.87945 250.259585 
L 407.155157 251.224496 
L 405.755817 251.764661 
L 404.639562 251.968921 
L 403.746871 251.916168 
L 403.022872 251.655187 
L 402.429574 251.203119 
L 401.945143 250.548454 
L 401.560702 249.640462 
L 401.295963 248.417031 
L 401.185832 246.810934 
L 401.274943 244.742772 
L 401.618521 242.121092 
L 402.276877 238.869417 
L 403.312028 234.915495 
L 404.774935 230.227692 
L 406.730611 224.72854 
L 409.201016 218.460918 
L 412.216303 211.429698 
L 415.754559 203.749668 
L 419.808006 195.487587 
L 424.306523 186.824919 
L 429.178306 177.925316 
L 434.334658 168.968067 
L 439.647042 160.183099 
L 445.00539 151.749199 
L 450.272697 143.869352 
L 455.319813 136.71178 
L 460.084302 130.333966 
L 464.468457 124.829396 
L 468.421288 120.215072 
L 471.912275 116.47269 
L 474.930693 113.552514 
L 477.483797 111.37864 
L 479.625297 109.834978 
L 481.37953 108.831979 
L 482.804848 108.262195 
L 483.943189 108.036182 
L 484.854445 108.074006 
L 485.585999 108.32173 
L 485.679842 108.373195 
L 485.679842 108.373195 
" style="fill:none;stroke:#0000ff;stroke-dasharray:6.000000,6.000000;stroke-dashoffset:0.0;stroke-width:1.5;"/>
   </g>
   <g id="patch_8">
    <path d="M 535.304348 270.978261 
L 535.304348 89.021739 
" style="fill:none;stroke:#000000;stroke-linecap:square;stroke-linejoin:miter;"/>
   </g>
   <g id="patch_9">
    <path d="M 353.347826 270.978261 
L 535.304348 270.978261 
" style="fill:none;stroke:#000000;stroke-linecap:square;stroke-linejoin:miter;"/>
   </g>
   <g id="patch_10">
    <path d="M 353.347826 270.978261 
L 353.347826 89.021739 
" style="fill:none;stroke:#000000;stroke-linecap:square;stroke-linejoin:miter;"/>
   </g>
   <g id="patch_11">
    <path d="M 353.347826 89.021739 
L 535.304348 89.021739 
" style="fill:none;stroke:#000000;stroke-linecap:square;stroke-linejoin:miter;"/>
   </g>
   <g id="text_2">
    <!-- $m = -1$ -->
    <g transform="translate(418.118086957 84.0217391304)">
     <text>
      <tspan style="font-family:cmr10;font-size:14.399999999999999px;font-style:regular;font-weight:regular;" x="15.160748291015626 45.099978637695315" y="-0.421875">=1</tspan>
      <tspan style="font-family:cmsy10;font-size:14.399999999999999px;font-style:regular;font-weight:regular;" x="31.39375915527344" y="-0.421875">ยก</tspan>
      <tspan style="font-family:cmmi10;font-size:14.399999999999999px;font-style:regular;font-weight:regular;" x="0.0" y="-0.421875">m</tspan>
     </text>
    </g>
   </g>
  </g>
  <g id="axes_3">
   <g id="patch_12">
    <path d="M 571.695652 270.978261 
L 753.652174 270.978261 
L 753.652174 89.021739 
L 571.695652 89.021739 
z
" style="fill:#ffffff;"/>
   </g>
   <g id="Quiver_5">
    <path clip-path="url(#p797481ef3b)" d="M 649.975516 203.497047 
L 649.975516 203.497047 
L 654.355429 202.268642 
L 652.218648 213.366675 
L 644.62229 204.99843 
L 649.002203 203.770026 
L 649.002203 203.770026 
L 649.975516 203.497047 
" style="fill:#ff0000;"/>
    <path clip-path="url(#p797481ef3b)" d="M 643.787143 99.584996 
L 643.787143 99.584996 
L 647.989439 101.326638 
L 639.449906 108.729916 
L 638.651003 97.456322 
L 642.853299 99.197964 
L 642.853299 99.197964 
L 643.787143 99.584996 
" style="fill:#ff0000;"/>
    <path clip-path="url(#p797481ef3b)" d="M 684.912352 206.682892 
L 684.912352 206.682892 
L 680.402225 207.275648 
L 684.096241 196.594524 
L 690.42473 205.958412 
L 685.914603 206.551168 
L 685.914603 206.551168 
L 684.912352 206.682892 
" style="fill:#ff0000;"/>
   </g>
   <g id="Quiver_6">
    <path clip-path="url(#p797481ef3b)" d="M 661.415685 204.367185 
L 661.415685 204.367185 
L 665.222365 201.876844 
L 666.526812 213.103178 
L 656.763076 207.410935 
L 660.569756 204.920594 
L 660.569756 204.920594 
L 661.415685 204.367185 
" style="fill:#0000ff;"/>
    <path clip-path="url(#p797481ef3b)" d="M 619.860284 108.993387 
L 619.860284 108.993387 
L 624.405946 108.821432 
L 619.737332 119.113964 
L 614.304475 109.203554 
L 618.850137 109.031599 
L 618.850137 109.031599 
L 619.860284 108.993387 
" style="fill:#0000ff;"/>
    <path clip-path="url(#p797481ef3b)" d="M 688.986866 200.160425 
L 688.986866 200.160425 
L 684.926827 202.211936 
L 684.879069 190.910171 
L 693.949135 197.653023 
L 689.889097 199.704534 
L 689.889097 199.704534 
L 688.986866 200.160425 
" style="fill:#0000ff;"/>
   </g>
   <g id="line2d_5">
    <path clip-path="url(#p797481ef3b)" d="M 679.272188 261.024869 
L 678.320691 261.104986 
L 677.314415 260.961495 
L 676.229246 260.575145 
L 675.0509 259.913445 
L 673.750406 258.920547 
L 672.310495 257.530503 
L 670.728434 255.681902 
L 669.003831 253.313363 
L 667.139186 250.365176 
L 665.12524 246.752325 
L 662.98708 242.44644 
L 660.754956 237.442095 
L 658.433453 231.680143 
L 656.077432 225.229556 
L 653.715193 218.10873 
L 651.379019 210.352286 
L 649.13043 202.110824 
L 647.002901 193.463558 
L 645.051965 184.604614 
L 643.304632 175.639151 
L 641.79397 166.726972 
L 640.551209 158.075094 
L 639.58236 149.779633 
L 638.896131 142.016859 
L 638.481567 134.846208 
L 638.3247 128.350903 
L 638.403046 122.586345 
L 638.686862 117.579267 
L 639.144601 113.299543 
L 639.745429 109.705656 
L 640.453551 106.76947 
L 641.238155 104.424715 
L 642.079243 102.587028 
L 642.944901 101.208098 
L 643.831703 100.200557 
L 644.723462 99.514521 
L 645.627585 99.094255 
L 646.557372 98.906551 
L 647.530989 98.939388 
L 648.570727 99.201496 
L 649.702452 99.722895 
L 650.941725 100.546108 
L 652.304921 101.726015 
L 653.808725 103.330544 
L 655.454823 105.421057 
L 657.257232 108.081714 
L 659.197445 111.354189 
L 661.267412 115.291952 
L 663.454713 119.941203 
L 665.742004 125.338116 
L 668.091608 131.464965 
L 670.461724 138.276152 
L 672.821799 145.744848 
L 675.124201 153.778764 
L 677.32136 162.260786 
L 679.367882 171.053544 
L 681.222652 180.005346 
L 682.850777 188.957083 
L 684.225245 197.749648 
L 685.328154 206.231354 
L 686.151453 214.264844 
L 686.697146 221.733016 
L 686.976964 228.543601 
L 687.011024 234.669783 
L 686.823389 240.065982 
L 686.444845 244.714494 
L 685.906811 248.651505 
L 685.245432 251.899658 
L 684.492747 254.522933 
L 683.678266 256.589461 
L 682.820157 258.182605 
L 681.940075 259.36269 
L 681.047342 260.196789 
L 680.146599 260.739089 
L 679.272188 261.024869 
L 679.272188 261.024869 
" style="fill:none;stroke:#ff0000;stroke-linecap:square;stroke-width:1.5;"/>
   </g>
   <g id="line2d_6">
    <path clip-path="url(#p797481ef3b)" d="M 704.027668 251.626805 
L 703.330774 251.899293 
L 702.512915 251.975978 
L 701.525352 251.838486 
L 700.324023 251.438381 
L 698.853407 250.703266 
L 697.078695 249.556903 
L 694.948255 247.905116 
L 692.426244 245.657224 
L 689.48154 242.72347 
L 686.113034 239.04464 
L 682.311113 234.555805 
L 678.078221 229.205809 
L 673.484034 223.034855 
L 668.566818 216.052383 
L 663.434532 208.37555 
L 658.156596 200.077647 
L 652.867184 191.344689 
L 647.70396 182.391136 
L 642.774515 173.400242 
L 638.178142 164.556586 
L 634.041501 156.122286 
L 630.4017 148.204602 
L 627.314313 140.967339 
L 624.789517 134.496169 
L 622.815366 128.84121 
L 621.359898 124.01762 
L 620.374142 120.008178 
L 619.79279 116.74591 
L 619.550646 114.172519 
L 619.577155 112.196782 
L 619.809028 110.714836 
L 620.190261 109.646001 
L 620.682292 108.899284 
L 621.270308 108.402773 
L 621.958459 108.114996 
L 622.767632 108.022799 
L 623.746196 108.14386 
L 624.938088 108.526304 
L 626.384074 109.233976 
L 628.130599 110.34523 
L 630.229253 111.953617 
L 632.716108 114.149608 
L 635.622729 117.023036 
L 638.951032 120.633852 
L 642.735599 125.077092 
L 646.928317 130.350337 
L 651.509888 136.477262 
L 656.391861 143.381497 
L 661.52031 151.022926 
L 666.773142 159.25009 
L 672.044533 167.918979 
L 677.223562 176.863135 
L 682.175375 185.856278 
L 686.800173 194.713695 
L 690.990667 203.215239 
L 694.665748 211.164956 
L 697.806852 218.480032 
L 700.381872 225.029106 
L 702.401579 230.75952 
L 703.897083 235.653995 
L 704.916821 239.728109 
L 705.522899 243.026099 
L 705.788999 245.652524 
L 705.780506 247.673234 
L 705.561294 249.192487 
L 705.187857 250.291326 
L 704.699472 251.061585 
L 704.119159 251.571267 
L 704.027668 251.626805 
L 704.027668 251.626805 
" style="fill:none;stroke:#0000ff;stroke-dasharray:6.000000,6.000000;stroke-dashoffset:0.0;stroke-width:1.5;"/>
   </g>
   <g id="patch_13">
    <path d="M 753.652174 270.978261 
L 753.652174 89.021739 
" style="fill:none;stroke:#000000;stroke-linecap:square;stroke-linejoin:miter;"/>
   </g>
   <g id="patch_14">
    <path d="M 571.695652 270.978261 
L 753.652174 270.978261 
" style="fill:none;stroke:#000000;stroke-linecap:square;stroke-linejoin:miter;"/>
   </g>
   <g id="patch_15">
    <path d="M 571.695652 270.978261 
L 571.695652 89.021739 
" style="fill:none;stroke:#000000;stroke-linecap:square;stroke-linejoin:miter;"/>
   </g>
   <g id="patch_16">
    <path d="M 571.695652 89.021739 
L 753.652174 89.021739 
" style="fill:none;stroke:#000000;stroke-linecap:square;stroke-linejoin:miter;"/>
   </g>
   <g id="text_3">
    <!-- $m = 1$ -->
    <g transform="translate(644.601913043 84.0217391304)">
     <text>
      <tspan style="font-family:cmr10;font-size:14.399999999999999px;font-style:regular;font-weight:regular;" x="15.160748291015626 28.8669677734375" y="-0.421875">=1</tspan>
      <tspan style="font-family:cmmi10;font-size:14.399999999999999px;font-style:regular;font-weight:regular;" x="0.0" y="-0.421875">m</tspan>
     </text>
    </g>
   </g>
  </g>
  <g id="axes_4">
   <g id="patch_17">
    <path d="M 790.043478 270.978261 
L 972 270.978261 
L 972 89.021739 
L 790.043478 89.021739 
z
" style="fill:#ffffff;"/>
   </g>
   <g id="Quiver_7">
    <path clip-path="url(#p10737221ef)" d="M 903.406496 108.984128 
L 903.406496 108.984128 
L 904.759197 104.640995 
L 912.907604 112.472701 
L 901.753195 114.292403 
L 903.105896 109.949269 
L 903.105896 109.949269 
L 903.406496 108.984128 
" style="fill:#ff0000;"/>
    <path clip-path="url(#p10737221ef)" d="M 800.550514 160.215327 
L 800.550514 160.215327 
L 796.315665 158.554404 
L 804.711993 150.989099 
L 805.72644 162.245344 
L 801.491591 160.584421 
L 801.491591 160.584421 
L 800.550514 160.215327 
" style="fill:#ff0000;"/>
    <path clip-path="url(#p10737221ef)" d="M 910.111199 249.329143 
L 910.111199 249.329143 
L 911.273207 253.727137 
L 900.208768 251.422716 
L 908.690968 243.953818 
L 909.852975 248.351811 
L 909.852975 248.351811 
L 910.111199 249.329143 
" style="fill:#ff0000;"/>
   </g>
   <g id="Quiver_8">
    <path clip-path="url(#p10737221ef)" d="M 901.919482 99.293819 
L 901.919482 99.293819 
L 903.325989 94.967811 
L 911.376555 102.900058 
L 900.200418 104.581163 
L 901.606925 100.255154 
L 901.606925 100.255154 
L 901.919482 99.293819 
" style="fill:#0000ff;"/>
    <path clip-path="url(#p10737221ef)" d="M 800.312276 159.114936 
L 800.312276 159.114936 
L 795.986047 157.709109 
L 803.917029 149.657296 
L 805.59989 160.833169 
L 801.273661 159.427342 
L 801.273661 159.427342 
L 800.312276 159.114936 
" style="fill:#0000ff;"/>
    <path clip-path="url(#p10737221ef)" d="M 911.582259 257.56454 
L 911.582259 257.56454 
L 912.988766 261.890549 
L 901.812629 260.209444 
L 909.863195 252.277197 
L 911.269702 256.603205 
L 911.269702 256.603205 
L 911.582259 257.56454 
" style="fill:#0000ff;"/>
   </g>
   <g id="line2d_7">
    <path clip-path="url(#p10737221ef)" d="M 963.709575 181.80389 
L 963.680347 177.987165 
L 963.426321 174.175913 
L 962.948188 170.3805 
L 962.247248 166.611249 
L 961.325408 162.878409 
L 960.185174 159.192134 
L 958.829648 155.562447 
L 957.262516 151.999221 
L 955.488039 148.512145 
L 953.486012 145.070283 
L 951.282135 141.725717 
L 948.882547 138.487765 
L 946.293933 135.365445 
L 943.489456 132.332548 
L 940.506809 129.435609 
L 937.354497 126.68289 
L 934.001618 124.052581 
L 930.494054 121.585622 
L 926.842045 119.289215 
L 923.056255 117.170065 
L 919.101612 115.212954 
L 915.033187 113.449424 
L 910.863137 111.884746 
L 906.603921 110.523594 
L 902.268267 109.370036 
L 897.869128 108.427519 
L 893.368266 107.691735 
L 888.829659 107.177001 
L 884.267184 106.88489 
L 879.694787 106.816294 
L 875.126446 106.971424 
L 870.576128 107.349806 
L 866.057743 107.950282 
L 861.585103 108.771017 
L 857.221647 109.796489 
L 852.929306 111.031728 
L 848.720904 112.473041 
L 844.609016 114.116124 
L 840.605929 115.956066 
L 836.767497 117.962957 
L 833.058275 120.150977 
L 829.489091 122.513738 
L 826.070367 125.044341 
L 822.849012 127.703215 
L 819.793578 130.511249 
L 816.91278 133.460436 
L 814.214834 136.542364 
L 811.735798 139.70984 
L 809.449759 142.989544 
L 807.363083 146.372341 
L 805.481585 149.848809 
L 803.829142 153.366421 
L 802.386631 156.956465 
L 801.157976 160.609179 
L 800.146519 164.314627 
L 799.355009 168.062734 
L 798.785599 171.843305 
L 798.439839 175.646059 
L 798.318668 179.460654 
L 798.422416 183.276716 
L 798.750801 187.083867 
L 799.302929 190.871752 
L 800.0773 194.63007 
L 801.071806 198.348601 
L 802.283745 202.017231 
L 803.709818 205.625983 
L 805.346149 209.165042 
L 807.188287 212.624784 
L 809.257038 216.035837 
L 811.525689 219.346511 
L 813.987923 222.547585 
L 816.63688 225.630142 
L 819.4999 228.619981 
L 822.538393 231.471146 
L 825.743694 234.175505 
L 829.147123 236.754392 
L 832.702011 239.167574 
L 836.397977 241.408005 
L 840.224232 243.469143 
L 844.216134 245.36567 
L 848.318011 247.066886 
L 852.517606 248.567707 
L 856.802371 249.863651 
L 861.159502 250.950843 
L 865.575981 251.826036 
L 870.090123 252.492952 
L 874.637683 252.938254 
L 879.20476 253.16058 
L 883.777391 253.159252 
L 888.341598 252.934273 
L 892.883427 252.48633 
L 897.388995 251.816794 
L 901.794229 250.939038 
L 906.137395 249.849318 
L 910.405516 248.55089 
L 914.585839 247.047634 
L 918.665874 245.344041 
L 922.633428 243.445202 
L 926.433223 241.381849 
L 930.10043 239.139279 
L 933.624343 236.72404 
L 936.994671 234.143185 
L 940.165262 231.436974 
L 943.167162 228.584055 
L 945.991811 225.592563 
L 948.631152 222.471032 
L 951.050023 219.267183 
L 953.273829 215.953955 
L 955.296377 212.540576 
L 957.112032 209.036556 
L 958.697909 205.494769 
L 960.07254 201.883646 
L 961.232183 198.213008 
L 962.173687 194.492838 
L 962.894491 190.733254 
L 963.392633 186.94448 
L 963.66676 183.136819 
L 963.709575 181.80389 
L 963.709575 181.80389 
" style="fill:none;stroke:#ff0000;stroke-linecap:square;stroke-width:1.5;"/>
   </g>
   <g id="line2d_8">
    <path clip-path="url(#p10737221ef)" d="M 963.729249 180 
L 963.616784 175.688291 
L 963.279693 171.388308 
L 962.718894 167.111746 
L 961.935912 162.870235 
L 960.932876 158.675309 
L 959.712514 154.538378 
L 958.278145 150.470692 
L 956.633669 146.483314 
L 954.78356 142.587088 
L 952.732849 138.79261 
L 950.487112 135.1102 
L 948.052457 131.549871 
L 945.435507 128.121307 
L 942.643376 124.833833 
L 939.68366 121.696388 
L 936.564407 118.717505 
L 933.294101 115.905286 
L 929.881634 113.267378 
L 926.336289 110.810956 
L 922.667706 108.542701 
L 918.885864 106.46878 
L 915.001046 104.594835 
L 911.023818 102.925961 
L 906.964996 101.466698 
L 902.83562 100.221013 
L 898.646918 99.192295 
L 894.410284 98.383341 
L 890.137237 97.796351 
L 885.8394 97.432922 
L 881.528462 97.294042 
L 877.216145 97.380089 
L 872.914177 97.690829 
L 868.634259 98.225416 
L 864.38803 98.982397 
L 860.187038 99.959714 
L 856.042708 101.154707 
L 851.966311 102.564128 
L 847.968933 104.184143 
L 844.061445 106.010346 
L 840.254474 108.037772 
L 836.558373 110.260906 
L 832.983195 112.673701 
L 829.538663 115.269597 
L 826.234143 118.041534 
L 823.078624 120.981972 
L 820.080686 124.082916 
L 817.248484 127.335932 
L 814.589719 130.732172 
L 812.111622 134.262401 
L 809.820933 137.917018 
L 807.723881 141.686084 
L 805.82617 145.559348 
L 804.13296 149.526276 
L 802.648857 153.576081 
L 801.377896 157.697748 
L 800.323534 161.880069 
L 799.488639 166.111668 
L 798.875481 170.381038 
L 798.485727 174.676567 
L 798.320438 178.986574 
L 798.380063 183.299337 
L 798.66444 187.603128 
L 799.172796 191.886241 
L 799.903748 196.137028 
L 800.855307 200.343929 
L 802.024888 204.495502 
L 803.409307 208.580458 
L 805.004801 212.587687 
L 806.80703 216.50629 
L 808.811094 220.325611 
L 811.011541 224.035262 
L 813.402387 227.625156 
L 815.977131 231.085528 
L 818.72877 234.406968 
L 821.64982 237.580443 
L 824.732338 240.597323 
L 827.967941 243.449403 
L 831.347828 246.128925 
L 834.862809 248.628604 
L 838.503323 250.941641 
L 842.25947 253.061745 
L 846.121034 254.983151 
L 850.077514 256.700633 
L 854.118151 258.209521 
L 858.231954 259.50571 
L 862.407736 260.585675 
L 866.63414 261.446481 
L 870.899673 262.085784 
L 875.192734 262.501848 
L 879.501648 262.69354 
L 883.814695 262.660339 
L 888.120147 262.402335 
L 892.406294 261.92023 
L 896.66148 261.215335 
L 900.874132 260.289568 
L 905.032793 259.145445 
L 909.126154 257.786079 
L 913.143083 256.215166 
L 917.072654 254.436978 
L 920.904181 252.456352 
L 924.627245 250.278674 
L 928.231719 247.909867 
L 931.707801 245.356372 
L 935.046037 242.625134 
L 938.237349 239.723581 
L 941.273058 236.659605 
L 944.144907 233.441537 
L 946.845087 230.078129 
L 949.366254 226.57853 
L 951.701552 222.952255 
L 953.844629 219.209168 
L 955.789658 215.359448 
L 957.531348 211.413564 
L 959.064962 207.382248 
L 960.386331 203.276464 
L 961.49186 199.107377 
L 962.378543 194.886325 
L 963.043968 190.624789 
L 963.486326 186.334358 
L 963.704414 182.0267 
L 963.729249 180 
L 963.729249 180 
" style="fill:none;stroke:#0000ff;stroke-dasharray:6.000000,6.000000;stroke-dashoffset:0.0;stroke-width:1.5;"/>
   </g>
   <g id="patch_18">
    <path d="M 972 270.978261 
L 972 89.021739 
" style="fill:none;stroke:#000000;stroke-linecap:square;stroke-linejoin:miter;"/>
   </g>
   <g id="patch_19">
    <path d="M 790.043478 270.978261 
L 972 270.978261 
" style="fill:none;stroke:#000000;stroke-linecap:square;stroke-linejoin:miter;"/>
   </g>
   <g id="patch_20">
    <path d="M 790.043478 270.978261 
L 790.043478 89.021739 
" style="fill:none;stroke:#000000;stroke-linecap:square;stroke-linejoin:miter;"/>
   </g>
   <g id="patch_21">
    <path d="M 790.043478 89.021739 
L 972 89.021739 
" style="fill:none;stroke:#000000;stroke-linecap:square;stroke-linejoin:miter;"/>
   </g>
   <g id="text_4">
    <!-- $m = 2$ -->
    <g transform="translate(862.94973913 84.0217391304)">
     <text>
      <tspan style="font-family:cmr10;font-size:14.399999999999999px;font-style:regular;font-weight:regular;" x="15.160748291015626 28.8669677734375" y="-0.421875">=2</tspan>
      <tspan style="font-family:cmmi10;font-size:14.399999999999999px;font-style:regular;font-weight:regular;" x="0.0" y="-0.421875">m</tspan>
     </text>
    </g>
   </g>
  </g>
  <g id="legend_1">
   <g id="patch_22">
    <path d="M 489.220875 352.8 
L 590.779125 352.8 
L 590.779125 306.207 
L 489.220875 306.207 
z
" style="fill:#ffffff;stroke:#000000;stroke-linejoin:miter;"/>
   </g>
   <g id="line2d_9">
    <path d="M 499.300875 317.86875 
L 519.460875 317.86875 
" style="fill:none;stroke:#0000ff;stroke-dasharray:6.000000,6.000000;stroke-dashoffset:0.0;stroke-width:1.5;"/>
   </g>
   <g id="line2d_10"/>
   <g id="text_5">
    <text style="font-family:Bitstream Vera Sans;font-size:14.399999999999999px;font-style:normal;font-weight:400;text-anchor:start;" transform="rotate(-0.000000, 535.300875, 322.908750)" x="535.300875" y="322.90875">Design</text>
   </g>
   <g id="line2d_11">
    <path d="M 499.300875 339.00525 
L 519.460875 339.00525 
" style="fill:none;stroke:#ff0000;stroke-linecap:square;stroke-width:1.5;"/>
   </g>
   <g id="line2d_12"/>
   <g id="text_6">
    <text style="font-family:Bitstream Vera Sans;font-size:14.399999999999999px;font-style:normal;font-weight:400;text-anchor:start;" transform="rotate(-0.000000, 535.300875, 344.045250)" x="535.300875" y="344.04525">0.8</text>
   </g>
  </g>
 </g>
 <defs>
  <clipPath id="p10737221ef">
   <rect height="181.956521739" width="181.956521739" x="790.043478261" y="89.0217391304"/>
  </clipPath>
  <clipPath id="p35ada96447">
   <rect height="181.956521739" width="181.956521739" x="135.0" y="89.0217391304"/>
  </clipPath>
  <clipPath id="p4d5035177b">
   <rect height="181.956521739" width="181.956521739" x="353.347826087" y="89.0217391304"/>
  </clipPath>
  <clipPath id="p797481ef3b">
   <rect height="181.956521739" width="181.956521739" x="571.695652174" y="89.0217391304"/>
  </clipPath>
 </defs>
</svg>
